<?xml version="1.0" standalone="no"?>
<!DOCTYPE svg PUBLIC "-//W3C//DTD SVG 20010904//EN"
 "http://www.w3.org/TR/2001/REC-SVG-20010904/DTD/svg10.dtd">
<svg version="1.0" xmlns="http://www.w3.org/2000/svg"
 width="1180.000000pt" height="1180.000000pt" viewBox="0 0 1180.000000 1180.000000"
 preserveAspectRatio="xMidYMid meet">
<metadata>
Created by potrace 1.14, written by Peter Selinger 2001-2017
</metadata>
<g transform="translate(0.000000,1180.000000) scale(0.100000,-0.100000)"
fill="#000000" stroke="none">
<path d="M6439 9756 c-2 -2 -29 -6 -59 -9 -127 -12 -253 -50 -398 -118 -319
-151 -551 -406 -673 -740 -16 -43 -31 -93 -34 -111 -3 -18 -10 -49 -15 -68
-23 -89 -31 -265 -18 -385 22 -191 93 -397 193 -555 21 -33 25 -48 17 -59 -5
-9 -15 -15 -21 -13 -6 1 -11 -2 -11 -8 0 -5 -9 -19 -20 -30 -11 -11 -20 -18
-20 -16 0 3 -29 -24 -64 -59 -36 -35 -67 -61 -70 -57 -3 3 -6 -3 -6 -13 0 -10
-3 -16 -6 -12 -3 3 -26 -14 -50 -39 -24 -24 -49 -44 -55 -44 -5 0 -8 -4 -5 -8
3 -5 -6 -15 -19 -22 -13 -7 -22 -16 -20 -21 3 -4 -9 -12 -25 -18 -17 -5 -30
-13 -30 -16 0 -3 6 -3 13 0 6 4 3 -1 -7 -9 -11 -9 -23 -16 -28 -16 -4 0 -7 -6
-6 -12 2 -7 -3 -12 -9 -10 -7 1 -13 -5 -13 -15 0 -9 -3 -14 -6 -10 -4 3 -31
-18 -60 -48 -30 -30 -58 -56 -62 -57 -4 -2 -6 -7 -4 -12 2 -5 -4 -6 -12 -3 -9
4 -15 3 -13 -2 2 -8 -65 -74 -102 -101 -12 -8 -21 -21 -21 -29 0 -8 -3 -11 -6
-8 -4 4 -22 -9 -40 -29 -19 -19 -34 -33 -34 -30 0 2 -27 -22 -60 -55 -33 -32
-60 -57 -60 -54 0 2 -20 -15 -44 -40 -24 -25 -49 -45 -56 -45 -7 0 -11 -3 -7
-6 6 -6 -30 -46 -38 -41 -2 1 -12 -8 -20 -21 -9 -12 -22 -19 -28 -16 -7 4 -9
4 -5 -1 9 -10 -93 -105 -106 -98 -5 3 -6 1 -3 -4 4 -6 0 -16 -8 -23 -8 -7 -15
-9 -15 -4 0 4 -11 -6 -23 -24 -13 -17 -26 -29 -30 -26 -3 3 -8 -4 -12 -15 -3
-12 -10 -19 -15 -16 -4 3 -11 -2 -14 -11 -3 -8 -11 -12 -17 -8 -7 4 -10 3 -7
-2 6 -10 -68 -85 -75 -77 -3 2 -8 -5 -12 -16 -3 -12 -10 -19 -15 -16 -5 3 -14
-4 -20 -15 -6 -11 -15 -18 -19 -16 -4 3 -13 -6 -20 -20 -6 -14 -16 -22 -21
-19 -6 3 -10 -2 -10 -11 0 -10 -2 -15 -6 -12 -3 3 -26 -14 -51 -38 -25 -24
-50 -44 -55 -44 -5 0 -6 -4 -3 -10 3 -5 2 -10 -3 -10 -4 0 -44 -34 -87 -75
-43 -41 -81 -75 -84 -75 -3 0 -21 -17 -40 -37 -19 -21 -30 -31 -26 -23 5 8
-11 -6 -34 -33 -24 -26 -47 -45 -52 -41 -5 3 -9 1 -9 -5 0 -17 -61 -71 -72
-65 -7 4 -8 2 -4 -4 3 -6 -3 -16 -14 -22 -11 -6 -18 -15 -15 -21 4 -5 3 -8 -2
-7 -5 2 -22 -9 -38 -24 -16 -16 -33 -28 -38 -28 -4 0 -5 -4 -2 -10 3 -5 2 -10
-3 -10 -6 0 -33 -22 -61 -49 -27 -27 -52 -46 -55 -44 -2 2 -7 -5 -11 -16 -4
-13 -15 -21 -28 -21 -18 0 -19 -2 -7 -10 11 -7 12 -10 2 -10 -19 0 -43 -26
-34 -36 4 -5 -1 -2 -11 6 -10 7 -17 9 -16 4 4 -22 -2 -34 -17 -34 -8 0 -12 -4
-9 -10 3 -5 2 -10 -4 -10 -9 0 -76 -60 -192 -172 -27 -26 -49 -45 -49 -43 0 3
-9 -3 -19 -12 -11 -9 -18 -20 -15 -25 3 -4 0 -8 -6 -8 -6 0 -24 -13 -39 -29
-16 -16 -31 -28 -33 -27 -1 1 -11 -6 -20 -16 -10 -10 -15 -18 -11 -18 4 0 -4
-8 -17 -17 -14 -10 -29 -17 -33 -15 -5 1 -6 -1 -4 -5 6 -11 -79 -89 -92 -85
-7 2 -10 -1 -9 -6 2 -5 -8 -19 -20 -30 l-24 -21 -21 20 c-36 34 -151 106 -235
149 -187 94 -383 138 -598 135 -330 -6 -610 -114 -853 -330 -275 -244 -426
-573 -435 -948 -2 -64 1 -99 18 -228 11 -88 61 -245 114 -359 85 -183 288
-413 475 -539 168 -112 254 -146 502 -200 66 -14 368 -6 455 13 317 67 622
265 801 520 128 181 216 400 235 583 7 61 17 76 46 69 10 -2 20 -1 22 3 4 6
48 12 119 15 15 0 27 3 27 6 0 3 15 7 33 9 17 1 48 4 67 7 19 2 58 6 85 8 28
2 57 7 65 9 8 3 22 5 30 6 8 0 33 3 55 7 22 4 54 8 72 8 17 0 30 3 28 6 -3 5
28 8 123 13 12 0 22 5 22 10 0 5 6 5 13 -2 9 -7 17 -7 23 -1 5 5 32 12 59 14
28 2 50 5 50 6 0 2 45 8 115 16 30 3 69 8 85 10 17 3 48 7 70 9 22 2 40 4 40
5 0 1 18 4 40 6 56 4 78 8 93 17 7 5 12 3 12 -5 0 -8 3 -9 8 -3 4 6 13 11 20
13 21 4 115 13 159 15 24 1 43 7 43 12 0 6 5 3 10 -5 7 -12 10 -12 10 -1 0 7
6 11 15 8 8 -4 17 -2 21 4 4 6 12 5 22 -3 13 -11 14 -11 7 1 -6 11 -3 13 13 9
12 -4 24 -2 27 3 3 4 12 6 20 3 8 -4 28 -1 45 4 21 8 30 8 30 0 0 -7 5 -6 15
2 8 7 26 10 40 8 14 -3 25 -2 25 2 0 4 16 6 36 5 19 -1 37 1 39 5 2 4 23 7 45
8 23 1 50 6 60 12 13 7 20 6 23 -3 4 -8 8 -9 14 -2 4 6 22 12 38 13 52 4 94
10 104 16 5 4 13 2 16 -4 5 -8 11 -8 20 0 7 6 17 10 21 9 5 -1 11 0 14 1 6 2
21 4 110 15 36 4 75 8 88 9 12 0 22 3 22 6 0 5 19 7 108 12 17 1 32 7 32 12 0
6 5 5 12 -2 7 -7 17 -8 27 -3 9 5 19 9 24 10 4 1 8 1 10 2 1 0 20 2 42 5 22 2
51 5 65 7 14 3 44 5 68 6 24 0 41 4 39 9 -3 4 19 7 49 7 30 0 54 3 54 6 0 4
14 5 30 4 17 -1 30 0 30 4 0 11 44 8 52 -3 5 -7 8 -6 8 2 0 7 5 10 10 7 6 -3
10 -2 10 3 0 5 10 8 23 7 12 -1 30 2 40 7 11 6 17 5 17 -3 0 -8 4 -8 13 -2 6
6 19 11 27 11 25 1 115 11 115 12 0 2 53 10 100 14 22 3 40 5 40 6 0 2 26 6
75 11 19 2 38 8 42 14 5 6 8 5 8 -3 0 -10 5 -10 20 -2 15 8 20 8 20 -2 0 -8 3
-9 8 -3 8 12 11 12 78 18 28 2 56 7 62 11 6 3 23 5 39 4 15 -1 38 4 50 10 14
8 24 9 28 2 4 -6 11 -7 17 -4 12 8 42 13 109 18 25 1 51 6 57 10 7 4 12 5 12
1 0 -3 8 -1 18 4 13 7 23 6 30 -1 7 -7 12 -8 12 -2 0 5 10 11 23 11 12 1 31 3
42 6 11 2 23 -1 27 -7 5 -8 8 -7 8 2 0 7 5 10 10 7 6 -3 10 -2 10 2 0 5 18 9
41 8 22 -1 42 2 44 6 3 3 16 4 30 1 14 -2 25 0 25 5 0 6 12 9 26 7 15 -1 37 2
50 6 17 7 24 6 24 -3 0 -7 3 -8 8 -2 4 6 18 11 32 12 50 5 105 12 105 13 0 3
42 8 97 12 27 1 48 6 48 9 0 4 14 5 30 4 17 -1 30 2 30 9 0 6 5 4 10 -4 5 -8
10 -10 10 -5 0 6 17 11 38 12 20 2 55 5 77 9 22 4 52 7 67 7 15 -1 26 2 24 6
-2 3 20 6 50 6 30 0 54 3 54 7 0 3 15 6 33 6 17 1 52 5 77 9 25 5 60 9 78 8
17 0 32 2 32 6 0 4 20 6 44 6 24 -1 42 2 39 6 -3 5 3 7 13 6 11 -2 25 0 32 4
7 5 12 3 12 -4 0 -8 4 -8 13 -1 7 6 34 12 60 13 27 2 51 7 53 11 3 5 12 4 20
-3 8 -7 14 -7 14 -1 0 5 10 10 23 10 12 1 40 4 62 7 22 3 58 7 80 10 22 3 52
7 67 9 22 3 29 -2 38 -28 80 -211 276 -460 475 -601 231 -165 470 -237 760
-231 160 4 174 6 302 37 322 79 628 310 802 605 78 133 146 323 170 479 10 62
7 323 -4 385 -98 554 -511 979 -1055 1085 -109 22 -311 26 -420 10 -149 -22
-324 -79 -433 -141 -23 -13 -53 -29 -67 -36 -14 -7 -27 -15 -30 -18 -3 -3 -20
-15 -38 -28 -40 -28 -40 -28 -150 75 -39 37 -83 77 -96 88 -14 10 -22 23 -20
27 3 4 0 8 -7 8 -7 0 -30 18 -51 40 -22 22 -41 40 -44 40 -10 0 -69 63 -67 71
2 5 -6 9 -18 9 -11 0 -18 4 -15 9 3 4 -6 13 -20 20 -14 6 -22 16 -19 21 3 6 0
10 -7 10 -8 0 -20 9 -28 19 -7 11 -17 18 -22 15 -4 -3 -8 1 -8 8 0 7 -16 24
-34 38 -19 14 -32 28 -29 33 2 4 -3 7 -11 7 -9 0 -21 9 -28 20 -7 11 -18 20
-25 20 -7 0 -13 7 -13 15 0 8 -3 15 -7 15 -14 0 -118 100 -115 111 1 6 -2 8
-7 5 -5 -3 -36 20 -70 52 -33 31 -87 81 -118 110 -133 122 -148 137 -145 145
1 5 -2 6 -7 3 -5 -4 -16 3 -24 14 -7 11 -16 17 -19 14 -4 -3 -9 4 -13 15 -3
12 -11 21 -17 21 -5 0 -22 13 -38 30 -15 16 -30 26 -34 23 -3 -3 -6 1 -6 10 0
10 -5 17 -10 17 -6 0 -38 27 -71 60 -33 33 -64 60 -69 60 -6 0 -10 7 -10 17 0
9 -3 14 -6 10 -4 -3 -23 11 -44 33 -21 22 -40 36 -44 33 -3 -4 -6 -1 -6 6 0 7
-7 19 -15 27 -8 9 -15 12 -15 9 0 -4 -25 18 -55 49 -31 31 -58 56 -61 56 -2 0
-21 16 -40 36 l-36 35 24 37 c50 75 140 280 152 344 2 13 9 41 14 63 27 101
36 337 19 463 -48 354 -264 701 -563 903 -73 49 -208 121 -254 134 -14 4 -29
11 -35 15 -11 8 -163 49 -204 56 -14 2 -42 7 -61 10 -41 7 -275 15 -281 10z
m326 -191 c329 -69 593 -254 764 -537 178 -293 204 -673 70 -1019 -53 -137
-206 -343 -334 -449 -130 -108 -370 -214 -533 -236 -26 -3 -56 -8 -67 -10 -25
-6 -245 -5 -254 0 -3 2 -28 7 -56 10 -56 8 -184 44 -200 56 -5 5 -28 11 -50
15 -149 27 -349 177 -480 360 -58 81 -139 238 -170 329 -54 163 -65 382 -31
576 48 263 234 555 456 712 158 112 356 189 525 205 33 3 62 7 63 8 10 9 228
-6 297 -20z m-835 -2260 c47 -26 92 -53 100 -60 16 -14 105 -45 180 -63 25 -6
68 -16 95 -23 62 -15 342 -21 410 -9 147 25 163 29 255 62 90 32 222 98 296
147 24 17 44 26 44 21 0 -6 6 -10 14 -10 8 0 18 -9 21 -20 3 -11 10 -20 15
-20 16 0 80 -67 72 -75 -4 -3 -2 -6 3 -5 23 5 35 -1 35 -17 0 -9 3 -14 6 -11
3 3 23 -12 44 -33 21 -21 44 -39 50 -39 6 0 9 -3 7 -7 -3 -5 1 -14 9 -21 8 -7
14 -11 14 -8 0 2 25 -20 55 -50 31 -30 58 -54 62 -54 3 0 22 -18 43 -40 21
-22 43 -40 49 -40 7 0 10 -4 7 -9 -3 -4 15 -23 39 -40 25 -18 45 -37 45 -42 0
-5 11 -14 25 -21 13 -6 22 -15 19 -19 -3 -5 -1 -9 5 -9 5 0 33 -23 60 -51 28
-29 51 -49 51 -46 0 3 16 -11 34 -29 19 -19 34 -37 33 -40 -1 -2 13 -13 31
-24 17 -11 32 -25 32 -30 0 -6 5 -8 10 -5 6 3 10 -1 10 -9 0 -8 9 -18 20 -21
11 -4 18 -11 15 -16 -4 -5 0 -9 7 -9 7 0 22 -11 32 -25 10 -13 22 -22 27 -19
8 5 13 -10 10 -29 -1 -5 3 -6 8 -3 5 3 34 -19 66 -49 31 -30 61 -55 66 -55 6
0 8 -4 5 -9 -3 -4 6 -13 20 -20 15 -6 22 -16 18 -23 -4 -6 -3 -8 3 -5 10 7 49
-33 45 -46 -1 -5 2 -6 7 -3 5 4 17 -4 25 -16 9 -12 16 -19 16 -15 0 4 24 -17
54 -47 30 -30 58 -51 62 -47 4 3 4 -2 1 -12 -4 -10 -3 -16 3 -12 5 3 29 -14
54 -39 24 -25 47 -42 50 -39 3 4 6 -1 6 -11 0 -9 5 -14 10 -11 6 3 10 -1 10
-9 0 -8 9 -18 20 -21 11 -3 20 -11 20 -16 0 -6 5 -7 12 -3 6 4 8 3 5 -2 -3 -6
14 -26 38 -45 24 -18 44 -40 45 -48 0 -8 3 -12 6 -8 4 3 23 -11 44 -33 21 -22
41 -36 44 -32 12 11 -7 -31 -34 -78 -53 -92 -118 -260 -135 -350 -16 -89 -25
-158 -29 -224 -3 -52 -1 -51 -71 -61 -43 -6 -128 -17 -142 -18 -7 0 -13 -5
-13 -11 0 -6 -4 -5 -9 3 -6 9 -14 10 -22 5 -13 -8 -57 -15 -104 -15 -10 0 -24
-4 -30 -8 -12 -10 -45 -8 -64 4 -10 6 -12 4 -6 -5 6 -10 1 -12 -18 -8 -15 3
-24 1 -21 -3 3 -5 -15 -8 -40 -6 -24 1 -42 -1 -39 -5 2 -5 -8 -8 -24 -8 -30 0
-118 -7 -118 -10 0 -4 -44 -10 -87 -12 -27 -2 -48 -6 -48 -9 0 -4 -12 -6 -27
-6 -16 0 -39 -3 -52 -7 -18 -6 -22 -5 -17 5 4 8 0 5 -8 -5 -9 -11 -16 -15 -16
-8 0 8 -7 9 -25 2 -18 -7 -25 -6 -25 3 0 9 -2 9 -8 1 -4 -7 -36 -15 -72 -19
-105 -12 -108 -13 -119 -19 -5 -4 -13 -2 -16 4 -5 8 -11 7 -21 -1 -8 -6 -14
-8 -14 -5 0 4 -9 2 -20 -4 -15 -8 -20 -8 -20 2 0 10 -2 10 -9 -1 -5 -7 -14
-10 -20 -7 -6 4 -11 1 -11 -6 0 -9 -3 -9 -10 2 -6 10 -10 11 -10 3 0 -8 -9
-11 -22 -9 -13 2 -33 0 -44 -5 -13 -4 -26 -3 -34 4 -10 9 -11 9 -6 0 7 -13 -5
-15 -71 -16 -13 0 -23 -4 -23 -9 0 -5 -9 -4 -20 2 -11 6 -20 7 -20 1 0 -5 -13
-8 -30 -7 -16 1 -30 -1 -30 -5 0 -4 -10 -7 -22 -6 -13 0 -48 -3 -78 -7 -30 -5
-68 -9 -85 -10 -16 -1 -34 -4 -40 -7 -5 -4 -20 -5 -32 -4 -13 1 -23 -2 -23 -6
0 -5 -7 -6 -15 -3 -8 4 -23 3 -32 -1 -16 -7 -62 -12 -150 -18 -18 -1 -33 -4
-33 -8 0 -3 -18 -5 -41 -5 -22 1 -43 -2 -45 -6 -2 -3 -15 -5 -29 -3 -14 1 -28
-1 -30 -5 -3 -4 -18 -6 -35 -4 -17 2 -30 -1 -30 -7 0 -8 -5 -7 -15 1 -9 7 -15
8 -15 2 0 -6 -8 -9 -17 -7 -10 1 -22 0 -28 -4 -18 -10 -35 -9 -35 2 0 9 -2 9
-8 0 -4 -7 -25 -13 -47 -14 -22 -1 -48 -6 -57 -11 -13 -6 -18 -5 -18 4 0 8 -3
9 -8 3 -4 -5 -18 -11 -32 -12 -14 -2 -41 -4 -60 -6 -20 -2 -40 -5 -45 -8 -6
-3 -25 -5 -42 -5 -18 1 -33 -2 -33 -5 0 -3 -10 -5 -22 -4 -13 1 -31 -2 -40 -7
-13 -6 -18 -5 -18 4 0 10 -2 10 -9 -1 -6 -9 -10 -10 -16 -2 -5 9 -11 9 -22 0
-8 -7 -27 -13 -42 -14 -15 -1 -33 -5 -40 -10 -10 -6 -12 -4 -6 5 5 9 4 11 -4
6 -7 -5 -22 -9 -34 -11 -71 -9 -135 -17 -157 -20 -14 -1 -36 -6 -49 -10 -18
-5 -22 -4 -16 6 5 8 -1 5 -13 -5 -14 -12 -22 -14 -22 -7 0 7 -5 9 -11 5 -7 -4
-24 -8 -38 -10 -33 -4 -109 -14 -141 -19 -53 -8 -126 -17 -157 -18 -18 -1 -33
-6 -33 -12 0 -5 -5 -3 -10 5 -5 8 -10 10 -10 5 0 -6 -8 -11 -17 -12 -64 -7
-98 -11 -98 -13 0 -1 -19 -2 -42 -3 -24 0 -43 -3 -43 -6 0 -4 -15 -7 -33 -8
-38 -2 -110 -11 -152 -18 -16 -3 -52 -7 -80 -11 -27 -3 -63 -7 -80 -10 -65
-10 -92 -13 -145 -19 -75 -8 -83 -9 -97 -18 -8 -5 -13 -3 -13 5 0 8 -3 9 -8 3
-4 -6 -24 -12 -45 -14 -21 -1 -51 -6 -67 -11 -20 -6 -30 -5 -30 2 0 7 -4 7
-13 0 -7 -6 -25 -9 -40 -8 -15 2 -27 0 -27 -4 0 -4 -12 -6 -27 -5 -16 1 -34
-2 -40 -8 -9 -6 -13 -5 -13 4 0 12 -2 12 -9 0 -5 -7 -13 -11 -19 -7 -6 3 -13
3 -15 -1 -3 -5 -26 -8 -51 -8 -25 1 -46 -2 -46 -5 0 -4 -12 -7 -27 -8 -62 -2
-99 -8 -112 -16 -11 -7 -12 -6 -6 5 7 11 6 12 -6 2 -8 -6 -27 -10 -42 -9 -15
2 -27 0 -27 -3 0 -4 -15 -8 -32 -8 -18 -1 -55 -5 -83 -9 -27 -3 -65 -7 -82 -8
-18 0 -33 -4 -33 -7 0 -6 -4 -7 -72 -10 -27 -1 -48 -4 -48 -8 0 -3 -20 -6 -45
-6 -25 1 -45 -2 -45 -6 0 -4 -12 -6 -27 -5 -16 2 -34 -1 -40 -6 -9 -7 -13 -7
-13 2 0 8 -4 9 -12 3 -12 -9 -55 -15 -120 -17 -16 -1 -28 -4 -28 -9 0 -4 -12
-7 -27 -6 -28 0 -86 -6 -112 -12 -9 -3 -26 26 -51 91 -20 52 -48 118 -63 147
-32 62 -33 70 -8 78 11 3 23 15 26 26 4 11 9 18 12 15 3 -3 21 10 38 29 18 19
35 31 39 28 3 -4 6 1 6 10 0 10 7 17 16 17 9 0 12 5 8 12 -5 8 -2 9 9 5 9 -3
16 -2 14 3 -3 10 71 80 86 80 6 0 8 3 4 6 -7 7 15 34 24 28 4 -2 17 10 29 26
13 17 29 30 37 30 8 0 11 5 8 10 -3 6 -3 10 2 10 13 0 92 77 86 84 -4 3 1 6
11 6 9 0 19 7 22 15 3 8 14 17 25 20 11 4 17 11 14 16 -4 5 -2 9 3 9 5 0 32
22 60 49 29 28 52 48 52 46 0 -2 15 11 33 28 19 18 32 36 29 41 -3 5 0 6 5 3
6 -4 21 7 33 23 13 17 29 30 36 30 8 0 14 7 14 15 0 8 9 15 20 15 11 0 19 4
18 9 -4 10 69 81 83 81 6 0 7 5 4 10 -3 6 0 10 8 10 8 0 18 7 21 16 3 8 11 12
16 9 6 -4 9 -3 8 2 -4 13 74 83 84 77 5 -3 7 -2 6 3 -3 8 64 83 74 83 3 0 39
33 81 74 43 40 77 71 77 67 0 -3 5 2 11 12 6 9 15 15 20 11 5 -3 8 -2 7 3 -2
5 9 21 25 36 15 15 27 24 28 20 0 -4 4 0 8 10 4 10 10 18 14 18 3 0 29 21 56
47 124 119 181 171 181 164 1 -4 7 4 15 18 8 14 14 22 15 18 0 -5 18 10 40 32
22 22 45 40 51 40 5 0 8 3 6 8 -2 4 7 17 20 29 13 12 23 19 23 15 0 -4 5 1 11
11 6 9 15 14 21 11 6 -4 9 -3 5 2 -3 5 11 23 30 39 19 17 64 58 99 93 36 34
69 62 74 62 6 0 10 7 10 15 0 8 3 14 8 13 7 -2 47 33 156 137 114 108 157 145
168 145 6 0 9 3 6 6 -6 6 27 44 38 44 3 0 25 20 48 45 24 25 48 45 54 45 6 0
14 9 17 21 4 11 9 18 13 15 3 -3 12 3 19 14 8 11 19 18 24 15 5 -4 9 -2 9 4 0
5 16 24 36 43 20 18 54 50 76 71 22 20 44 37 49 37 6 0 8 4 4 9 -3 5 4 12 15
16 11 4 18 11 15 16 -4 5 -1 10 4 10 6 1 17 2 24 3 6 0 12 6 12 11 0 6 15 25
33 43 17 17 32 29 32 27 0 -3 27 22 60 55 37 37 66 58 73 54 7 -4 9 -3 4 1 -4
5 0 17 9 27 16 17 18 17 48 -1 17 -10 69 -40 116 -66z m4542 -1164 c130 -33
254 -87 361 -158 88 -58 249 -216 304 -298 220 -328 258 -742 102 -1109 -61
-143 -232 -362 -339 -436 -19 -13 -37 -27 -40 -30 -13 -17 -150 -92 -218 -121
-266 -110 -588 -120 -825 -24 -33 14 -66 25 -72 25 -6 0 -52 20 -101 44 -204
99 -358 256 -469 476 -81 163 -117 309 -119 485 -3 255 46 435 177 650 50 82
175 223 257 289 98 79 277 169 401 202 193 50 396 52 581 5z m-8748 -1126
c414 -60 781 -364 910 -755 64 -194 76 -360 42 -580 -7 -44 -26 -113 -53 -190
-92 -260 -302 -495 -560 -624 -68 -34 -246 -92 -303 -100 -25 -3 -56 -8 -70
-11 -31 -6 -258 -8 -268 -1 -4 2 -28 7 -52 10 -79 9 -236 60 -350 113 -277
129 -458 350 -568 693 -24 76 -40 218 -37 335 8 299 122 569 330 780 177 181
419 303 655 331 30 3 56 8 58 9 5 4 224 -3 266 -10z"/>
</g>
</svg>
